<svg width="28" height="28" viewBox="0 0 28 28" fill="none" xmlns="http://www.w3.org/2000/svg">
<path d="M9.33917 15.1666C9.33917 15.4761 9.21625 15.7728 8.99746 15.9916C8.77867 16.2104 8.48192 16.3333 8.1725 16.3333C7.86308 16.3333 7.56633 16.2104 7.34754 15.9916C7.12875 15.7728 7.00583 15.4761 7.00583 15.1666C7.00583 14.8572 7.12875 14.5605 7.34754 14.3417C7.56633 14.1229 7.86308 14 8.1725 14C8.48192 14 8.77867 14.1229 8.99746 14.3417C9.21625 14.5605 9.33917 14.8572 9.33917 15.1666ZM19.8333 16.3333C20.1428 16.3333 20.4395 16.2104 20.6583 15.9916C20.8771 15.7728 21 15.4761 21 15.1666C21 14.8572 20.8771 14.5605 20.6583 14.3417C20.4395 14.1229 20.1428 14 19.8333 14C19.5239 14 19.2272 14.1229 19.0084 14.3417C18.7896 14.5605 18.6667 14.8572 18.6667 15.1666C18.6667 15.4761 18.7896 15.7728 19.0084 15.9916C19.2272 16.2104 19.5239 16.3333 19.8333 16.3333ZM11.0647 17.2083C11.0647 16.9762 11.1569 16.7537 11.3209 16.5896C11.485 16.4255 11.7076 16.3333 11.9397 16.3333H16.0055C16.2376 16.3333 16.4601 16.4255 16.6242 16.5896C16.7883 16.7537 16.8805 16.9762 16.8805 17.2083C16.8805 17.4404 16.7883 17.6629 16.6242 17.827C16.4601 17.9911 16.2376 18.0833 16.0055 18.0833H11.9397C11.7076 18.0833 11.485 17.9911 11.3209 17.827C11.1569 17.6629 11.0647 17.4404 11.0647 17.2083ZM10.8103 2.32397C10.5783 2.32397 10.3557 2.41616 10.1916 2.58026C10.0275 2.74435 9.93533 2.96691 9.93533 3.19897V5.24997H9.16067C8.34776 5.24972 7.55629 5.51072 6.90301 5.99449C6.24972 6.47826 5.7692 7.15918 5.53233 7.93681L5.4635 8.16664H4.375C4.14294 8.16664 3.92038 8.25883 3.75628 8.42292C3.59219 8.58702 3.5 8.80958 3.5 9.04164C3.5 9.27371 3.59219 9.49626 3.75628 9.66036C3.92038 9.82445 4.14294 9.91664 4.375 9.91664H4.99683L4.76117 10.8815C4.37593 11.1156 4.05752 11.445 3.83662 11.838C3.61571 12.2309 3.49978 12.6742 3.5 13.125V23.0416C3.5 24.1686 4.41467 25.0833 5.54167 25.0833H7.29167C7.83315 25.0833 8.35246 24.8682 8.73534 24.4853C9.11823 24.1024 9.33333 23.5831 9.33333 23.0416V21.5833H18.6667V23.0416C18.6667 24.1686 19.5813 25.0833 20.7083 25.0833H22.4583C22.9998 25.0833 23.5191 24.8682 23.902 24.4853C24.2849 24.1024 24.5 23.5831 24.5 23.0416V13.125C24.5 12.1741 23.9937 11.34 23.2365 10.8803L22.9962 9.91664H23.625C23.8571 9.91664 24.0796 9.82445 24.2437 9.66036C24.4078 9.49626 24.5 9.27371 24.5 9.04164C24.5 8.80958 24.4078 8.58702 24.2437 8.42292C24.0796 8.25883 23.8571 8.16664 23.625 8.16664H22.526L22.4618 7.95197C22.2275 7.17094 21.7476 6.48627 21.0934 5.99954C20.4391 5.5128 19.6454 5.24995 18.83 5.24997H18.0833V3.19897C18.0833 2.96691 17.9911 2.74435 17.8271 2.58026C17.663 2.41616 17.4404 2.32397 17.2083 2.32397H10.8103ZM16.3333 5.24997H11.6853V4.07397H16.3333V5.24997ZM9.16067 6.99997H18.83C19.269 7.00001 19.6963 7.14156 20.0486 7.40363C20.4008 7.66569 20.6591 8.03431 20.7853 8.45481L21.0303 9.27381L21.3383 10.5H6.65583L6.95567 9.27264L7.20767 8.44664C7.33519 8.02805 7.59383 7.66151 7.94545 7.40104C8.29708 7.14058 8.72308 6.99998 9.16067 6.99997ZM5.25 19.8333V13.125C5.25 12.8929 5.34219 12.6704 5.50628 12.5063C5.67038 12.3422 5.89294 12.25 6.125 12.25H21.875C22.1071 12.25 22.3296 12.3422 22.4937 12.5063C22.6578 12.6704 22.75 12.8929 22.75 13.125V19.8333H5.25ZM5.25 23.0416V21.5833H7.58333V23.0416C7.58333 23.119 7.5526 23.1932 7.49791 23.2479C7.44321 23.3026 7.36902 23.3333 7.29167 23.3333H5.54167C5.46431 23.3333 5.39013 23.3026 5.33543 23.2479C5.28073 23.1932 5.25 23.119 5.25 23.0416ZM22.75 21.5833V23.0416C22.75 23.119 22.7193 23.1932 22.6646 23.2479C22.6099 23.3026 22.5357 23.3333 22.4583 23.3333H20.7083C20.631 23.3333 20.5568 23.3026 20.5021 23.2479C20.4474 23.1932 20.4167 23.119 20.4167 23.0416V21.5833H22.75Z" fill="black"/>
</svg>
