<svg width="50" height="21" viewBox="0 0 50 21" fill="none" xmlns="http://www.w3.org/2000/svg">
<path id="Vector" fill-rule="evenodd" clip-rule="evenodd" d="M42.2966 11.3836C44.49 11.3836 46.2684 13.3933 46.2684 15.872C46.2684 18.3507 44.49 20.3604 42.2966 20.3604C40.1032 20.3604 38.3249 18.3507 38.3249 15.872C38.3249 13.3933 40.1032 11.3836 42.2966 11.3836ZM9.35883 13.729V15.3431H10.7872C10.6163 14.5522 10.0628 13.9221 9.35883 13.729ZM10.7913 16.3962H9.35883V18.0104C10.0628 17.8219 10.6163 17.1918 10.7913 16.3962ZM8.42694 18.015V16.4008H6.99857C7.16949 17.1918 7.727 17.8173 8.42694 18.015ZM6.99857 15.3477H8.42694V13.7336C7.727 13.9221 7.16949 14.5522 6.99857 15.3477ZM42.7646 13.729V15.3431H44.193C44.022 14.5522 43.4686 13.9221 42.7646 13.729ZM44.193 16.3962H42.7646V18.0104C43.4686 17.8219 44.022 17.1918 44.193 16.3962ZM41.8327 18.015V16.4008H40.4043C40.5753 17.1918 41.1287 17.8173 41.8327 18.015ZM40.4003 15.3477H41.8286V13.7336C41.1287 13.9221 40.5753 14.5522 40.4003 15.3477ZM20.0573 6.24225C19.4306 6.08129 18.808 6.08129 18.1813 6.11348C23.0849 3.20249 25.0098 1.31241 30.7517 1.69411L29.9622 7.61267L20.509 8.01736C20.5945 7.73684 20.6433 7.58508 20.6596 7.30456C20.7043 6.50438 20.6962 6.4078 20.0573 6.24225ZM32.1963 1.79988L31.1709 7.53449L40.9903 7.08382C41.9995 7.03783 42.1745 6.53657 41.5641 5.57543C41.2874 5.13855 40.9781 4.70627 40.6241 4.27859C38.0848 1.21584 35.5577 1.85046 32.1963 1.79988ZM0.186386 12.9058H0.487522C0.674714 11.9677 1.04503 11.1215 1.59033 10.3627C2.78674 8.67958 3.33204 8.89112 5.11037 8.52782L15.0641 6.4078C17.2738 4.63269 19.9393 3.05073 23.1907 1.7171C26.2062 0.475442 28.3345 0.355875 31.5615 0.360474C33.409 0.365072 35.281 0.489238 37.1814 0.746767C38.1458 0.815748 39.0899 0.962907 40.0177 1.17445C41.1287 1.42738 42.2193 1.77688 43.2895 2.19077L47.2776 4.79365C48.4536 5.56164 48.7059 6.45839 48.8565 7.92538L49.4181 13.3427H50V16.3365C49.9186 17.3436 49.5686 17.4953 48.828 17.4953H47.8636C48.2379 8.02656 36.4489 6.4078 36.7052 18.2449H14.1445C15.6623 10.0822 8.3781 7.24937 4.80109 11.9171C3.71456 13.3381 3.33611 15.2788 3.43377 17.5735H0.825283C0.617743 17.4632 0.454966 17.3114 0.332884 17.1228C-0.0944035 16.4652 -0.000807158 14.4832 0.0317481 13.3381C0.0358175 13.03 -0.04964 12.9058 0.186386 12.9058ZM8.89492 11.3836C11.0883 11.3836 12.8667 13.3933 12.8667 15.872C12.8667 18.3507 11.0883 20.3604 8.89492 20.3604C6.70151 20.3604 4.92318 18.3507 4.92318 15.872C4.92318 13.3933 6.70151 11.3836 8.89492 11.3836Z" fill="#D1D1D1"/>
</svg>
