<svg width="27" height="27" viewBox="0 0 27 27" fill="none" xmlns="http://www.w3.org/2000/svg">
<g clip-path="url(#clip0_1_4011)">
<path d="M13.7101 0.782471C6.67238 0.782471 0.9673 6.48755 0.9673 13.5253C0.9673 20.5631 6.67238 26.2682 13.7101 26.2682C20.7479 26.2682 26.453 20.5631 26.453 13.5253C26.453 6.48755 20.7479 0.782471 13.7101 0.782471ZM16.7286 9.5883H14.8132C14.5862 9.5883 14.334 9.88696 14.334 10.2839V11.667H16.7299L16.3676 13.6395H14.334V19.5609H12.0735V13.6395H10.0227V11.667H12.0735V10.5069C12.0735 8.84232 13.2283 7.48972 14.8132 7.48972H16.7286V9.5883Z" fill="#00AFF5"/>
</g>
<defs>
<clipPath id="clip0_1_4011">
<rect width="26.5476" height="26.5476" fill="white" transform="translate(0.436272 0.251709)"/>
</clipPath>
</defs>
</svg>
