<svg width="28" height="27" viewBox="0 0 28 27" fill="none" xmlns="http://www.w3.org/2000/svg">
<g clip-path="url(#clip0_1_4013)">
<path d="M13.9559 0.782471C6.91818 0.782471 1.2131 6.48755 1.2131 13.5253C1.2131 20.5631 6.91818 26.2682 13.9559 26.2682C20.9937 26.2682 26.6988 20.5631 26.6988 13.5253C26.6988 6.48755 20.9937 0.782471 13.9559 0.782471ZM10.8366 18.807H8.25618V10.5029H10.8366V18.807ZM9.53046 9.48344C8.71545 9.48344 8.18848 8.90603 8.18848 8.1919C8.18848 7.46317 8.73138 6.90302 9.56365 6.90302C10.3959 6.90302 10.9056 7.46317 10.9216 8.1919C10.9216 8.90603 10.3959 9.48344 9.53046 9.48344ZM20.261 18.807H17.6806V14.2049C17.6806 13.1337 17.3063 12.4063 16.3731 12.4063C15.6603 12.4063 15.2369 12.8988 15.0497 13.3727C14.9807 13.5412 14.9634 13.7802 14.9634 14.0178V18.8056H12.3817V13.151C12.3817 12.1143 12.3485 11.2475 12.314 10.5015H14.5559L14.6741 11.655H14.7258C15.0656 11.1135 15.8979 10.3144 17.2903 10.3144C18.988 10.3144 20.261 11.4519 20.261 13.897V18.807Z" fill="#00AFF5"/>
</g>
<defs>
<clipPath id="clip0_1_4013">
<rect width="26.5476" height="26.5476" fill="white" transform="translate(0.68222 0.251709)"/>
</clipPath>
</defs>
</svg>
