<svg width="30" height="30" viewBox="0 0 30 30" fill="none" xmlns="http://www.w3.org/2000/svg">
<g id="ooui:user-avatar-outline">
<path id="Vector" d="M21.5476 10.5V15.6936H17.7262V10.5H16.2738V15.6936H12.4524V10.5H11V22.5H12.4524V17.3064H16.2738V22.5H17.7262V17.3064H23V10.5H21.5476Z" fill="#D1D1D1"/>
<path id="Vector_2" d="M7.66113 7.16113C10.0221 4.8002 13.1611 3.5 16.5 3.5C19.8389 3.5 22.9779 4.8002 25.3389 7.16113C27.6998 9.52212 29 12.6611 29 16C29 19.3389 27.6998 22.4779 25.3389 24.8389C22.9779 27.1998 19.8389 28.5 16.5 28.5C13.1611 28.5 10.0221 27.1998 7.66113 24.8389C5.3002 22.4779 4 19.3389 4 16C4 12.6611 5.3002 9.52212 7.66113 7.16113ZM16.5 26.8696C22.4935 26.8696 27.3696 21.9935 27.3696 16C27.3696 10.0065 22.4935 5.13042 16.5 5.13042C10.5065 5.13042 5.63042 10.0065 5.63042 16C5.63042 21.9935 10.5065 26.8696 16.5 26.8696Z" fill="#D1D1D1"/>
</g>
</svg>
