<svg width="32" height="33" viewBox="0 0 32 33" fill="none" xmlns="http://www.w3.org/2000/svg">
<g id="ci:dot-03-m">
<path id="pin_fill_sharp_circle-[#635]" fill-rule="evenodd" clip-rule="evenodd" d="M18.7071 13.4252C18.7071 11.2711 16.9804 9.5252 14.85 9.5252C12.7195 9.5252 10.9928 11.2711 10.9928 13.4252C10.9928 15.5793 12.7195 17.3252 14.85 17.3252C16.9804 17.3252 18.7071 15.5793 18.7071 13.4252ZM23.85 12.6C23.85 17.6258 14.85 29.5 14.85 29.5C14.85 29.5 5.84998 17.6258 5.84998 12.6C5.84998 7.5742 9.8794 3.5 14.85 3.5C19.8205 3.5 23.85 7.5742 23.85 12.6ZM16.1357 13.4252C16.1357 14.1415 15.5584 14.7252 14.85 14.7252C14.1415 14.7252 13.5643 14.1415 13.5643 13.4252C13.5643 12.7089 14.1415 12.1252 14.85 12.1252C15.5584 12.1252 16.1357 12.7089 16.1357 13.4252Z" fill="#D1D1D1"/>
</g>
</svg>
