<svg width="25" height="25" viewBox="0 0 25 25" fill="none" xmlns="http://www.w3.org/2000/svg">
<path id="Vector" fill-rule="evenodd" clip-rule="evenodd" d="M18.9521 20.7626C18.9521 19.6587 18.9295 16.1186 18.9295 15.077C18.9295 13.7922 18.8357 13.1571 16.989 12.9999C16.9599 16.6883 16.9308 20.451 16.9308 22.4777H18.273L18.2147 25L0.113195 24.9407L0 22.4777H1.51035C1.45537 18.0741 1.28396 4.32321 1.23545 2.89293C1.17723 1.18668 2.10543 0.174797 4.31436 0.121384C6.52329 0.0679706 12.3254 -0.0388558 14.24 0.0145573C16.1546 0.0679704 17.0375 0.797948 17.0375 3.14219C17.0375 4.05911 17.0181 7.43897 16.9955 11.2194C20.1746 11.4924 20.8765 12.9672 20.8765 15.077C20.8765 16.1127 20.8991 19.9347 20.8991 20.7626C20.8991 21.8872 23.0369 21.9881 23.0369 20.721C23.0369 19.8011 23.0369 11.5221 23.0369 11.5221L20.4819 9.33514L20.8441 6.12739L18.2891 3.70896L19.5181 2.39144L24.9547 7.36182C24.9547 7.36182 25 17.264 25 20.7151C25 24.1662 18.9521 24.0593 18.9521 20.7626ZM3.34735 3.01459C3.34735 3.01459 3.44761 5.18969 3.44761 8.00575C3.44761 12.3589 14.9159 12.1393 14.9159 7.96123C14.9159 5.61403 14.9677 2.91667 14.9677 2.91667L3.34735 3.01459Z" fill="#D1D1D1"/>
</svg>
