<svg width="27" height="27" viewBox="0 0 27 27" fill="none" xmlns="http://www.w3.org/2000/svg">
<path d="M13.464 1.91113C7.05004 1.91113 1.84941 7.11176 1.84941 13.5257C1.84941 19.9396 7.05004 25.1403 13.464 25.1403C19.8779 25.1403 25.0785 19.9396 25.0785 13.5257C25.0785 7.11176 19.8779 1.91113 13.464 1.91113ZM19.0457 10.6661C19.0535 10.788 19.0535 10.915 19.0535 11.0395C19.0535 14.8453 16.155 19.2293 10.8585 19.2293C9.22518 19.2293 7.71114 18.7548 6.43561 17.9382C6.66894 17.9641 6.8919 17.9745 7.13041 17.9745C8.47853 17.9745 9.71776 17.5182 10.7055 16.7456C9.44036 16.7197 8.37742 15.8901 8.01446 14.7494C8.45779 14.8142 8.85704 14.8142 9.31333 14.6975C8.66189 14.5652 8.07636 14.2114 7.65622 13.6962C7.23607 13.1811 7.00723 12.5364 7.00856 11.8717V11.8354C7.38966 12.0505 7.83817 12.1828 8.30742 12.2009C7.91295 11.938 7.58944 11.5818 7.36558 11.164C7.14172 10.7461 7.02444 10.2795 7.02412 9.80541C7.02412 9.26875 7.16411 8.77876 7.41559 8.35359C8.13865 9.2437 9.04093 9.9717 10.0638 10.4903C11.0866 11.0088 12.2071 11.3064 13.3525 11.3635C12.9455 9.40616 14.4077 7.82212 16.1654 7.82212C16.995 7.82212 17.7417 8.16952 18.268 8.72951C18.9187 8.60766 19.5409 8.36396 20.0957 8.0373C19.8805 8.70358 19.4294 9.26616 18.8305 9.62134C19.4113 9.55912 19.9712 9.39838 20.4898 9.17283C20.0983 9.74837 19.6083 10.2591 19.0457 10.6661Z" fill="#00AFF5"/>
</svg>
