<svg width="28" height="27" viewBox="0 0 28 27" fill="none" xmlns="http://www.w3.org/2000/svg">
<g clip-path="url(#clip0_1_4015)">
<path d="M16.3298 13.3036L13.3485 11.9125C13.0883 11.7918 12.8746 11.9271 12.8746 12.2152V14.8354C12.8746 15.1235 13.0883 15.2589 13.3485 15.1381L16.3284 13.747C16.5899 13.6249 16.5899 13.4258 16.3298 13.3036ZM14.202 0.782471C7.16422 0.782471 1.45914 6.48755 1.45914 13.5253C1.45914 20.5631 7.16422 26.2682 14.202 26.2682C21.2397 26.2682 26.9448 20.5631 26.9448 13.5253C26.9448 6.48755 21.2397 0.782471 14.202 0.782471ZM14.202 18.7021C7.67924 18.7021 7.56509 18.1141 7.56509 13.5253C7.56509 8.93656 7.67924 8.34853 14.202 8.34853C20.7247 8.34853 20.8389 8.93656 20.8389 13.5253C20.8389 18.1141 20.7247 18.7021 14.202 18.7021Z" fill="#00AFF5"/>
</g>
<defs>
<clipPath id="clip0_1_4015">
<rect width="26.5476" height="26.5476" fill="white" transform="translate(0.928162 0.251709)"/>
</clipPath>
</defs>
</svg>
